<?xml version="1.0" standalone="no"?>
<!DOCTYPE svg PUBLIC "-//W3C//DTD SVG 1.1//EN" "http://www.w3.org/Graphics/SVG/1.1/DTD/svg11.dtd" >
<svg xmlns="http://www.w3.org/2000/svg">
<metadata>
Created by FontForge 20120731 at Wed Apr  5 17:19:43 2017
 By admin
</metadata>
<defs>
<font id="iconfont" horiz-adv-x="1024" >
  <font-face 
    font-family="iconfont"
    font-weight="500"
    font-stretch="normal"
    units-per-em="1024"
    panose-1="2 0 6 3 0 0 0 0 0 0"
    ascent="896"
    descent="-128"
    x-height="792"
    bbox="0 -212 1024.5 892"
    underline-thickness="0"
    underline-position="0"
    unicode-range="U+0078-E97D"
  />
<missing-glyph 
 />
    <glyph glyph-name=".notdef" 
 />
    <glyph glyph-name=".notdef" 
 />
    <glyph glyph-name=".null" horiz-adv-x="0" 
 />
    <glyph glyph-name="nonmarkingreturn" horiz-adv-x="341" 
 />
    <glyph glyph-name="x" unicode="x" horiz-adv-x="1001" 
d="M281 543q-27 -1 -53 -1h-83q-18 0 -36.5 -6t-32.5 -18.5t-23 -32t-9 -45.5v-76h912v41q0 16 -0.5 30t-0.5 18q0 13 -5 29t-17 29.5t-31.5 22.5t-49.5 9h-133v-97h-438v97zM955 310v-52q0 -23 0.5 -52t0.5 -58t-10.5 -47.5t-26 -30t-33 -16t-31.5 -4.5q-14 -1 -29.5 -0.5
t-29.5 0.5h-32l-45 128h-439l-44 -128h-29h-34q-20 0 -45 1q-25 0 -41 9.5t-25.5 23t-13.5 29.5t-4 30v167h911zM163 247q-12 0 -21 -8.5t-9 -21.5t9 -21.5t21 -8.5q13 0 22 8.5t9 21.5t-9 21.5t-22 8.5zM316 123q-8 -26 -14 -48q-5 -19 -10.5 -37t-7.5 -25t-3 -15t1 -14.5
t9.5 -10.5t21.5 -4h37h67h81h80h64h36q23 0 34 12t2 38q-5 13 -9.5 30.5t-9.5 34.5q-5 19 -11 39h-368zM336 498v228q0 11 2.5 23t10 21.5t20.5 15.5t34 6h188q31 0 51.5 -14.5t20.5 -52.5v-227h-327z" />
    <glyph glyph-name="icon07" unicode="&#xe612;" 
d="M370 -71q-10 0 -17 6q-8 7 -9 17.5t6 18.5l271 322l-258 309q-7 9 -6 19.5t9 17t18.5 5.5t17.5 -9l272 -325q14 -17 0 -33l-285 -339q-7 -9 -19 -9z" />
    <glyph glyph-name="close" unicode="&#xe609;" 
d="M185 -24q6 -6 14.5 -6t14.5 6l292 293l293 -293q6 -6 14.5 -6t14.5 6t6 14.5t-6 14.5l-292 292l292 293q6 6 6 14.5t-6 14.5t-14.5 6t-14.5 -6l-293 -293l-292 293q-6 6 -14.5 6t-14.5 -6t-6 -14.5t6 -14.5l292 -293l-292 -292q-6 -6 -6 -14.5t6 -14.5z" />
    <glyph glyph-name="weixin" unicode="&#xe604;" 
d="M669 495q14 0 30 -2q-20 95 -110.5 157.5t-206.5 62.5q-130 0 -222 -77.5t-92 -189.5q0 -124 126 -212l-31 -94l109 55q80 -16 110 -16q14 0 30 1q-10 33 -10 66q0 103 77.5 176t189.5 73zM500 580q18 0 28.5 -11t10.5 -28.5t-10.5 -28.5t-28.5 -11t-32.5 11.5
t-14.5 28.5t14.5 28t32.5 11zM280 501q-18 0 -32.5 11.5t-14.5 28.5t14.5 28t32.5 11t29 -11t11 -28.5t-11 -28.5t-29 -11zM956 250q0 93 -80 160.5t-187 67.5q-112 0 -189.5 -67t-77.5 -161.5t77.5 -161t189.5 -66.5q31 0 94 16l86 -47l-23 78q110 83 110 181zM602 289
q-11 0 -21 10t-10 21.5t10 21.5t21 10q17 0 28.5 -9.5t11.5 -22t-11.5 -22t-28.5 -9.5zM775 289q-12 0 -21.5 10t-9.5 21.5t9.5 21.5t21.5 10q17 0 28 -9.5t11 -22t-11 -22t-28 -9.5z" />
    <glyph glyph-name="feiji" unicode="&#xe84d;" 
d="M68 208l882 520l-118 -691l-346 78l262 372l-356 -352zM476 62l15 -186l97 161z" />
    <glyph glyph-name="tupian" unicode="&#xe674;" 
d="M241 557q0 48 34 81.5t82 33.5t81.5 -33.5t33.5 -81.5t-33.5 -81.5t-81.5 -33.5t-82 33.5t-34 81.5zM966 764v-760q0 -30 -22 -52t-52 -22h-760q-30 0 -52 22t-22 52v760q0 30 22 52t52 22h760q30 0 52 -22t22 -52zM890 762h-756v-696l196 256q9 12 24 13.5t27 -7.5
l148 -132l294 385q10 11 24.5 12.5t26.5 -7.5l16 -14v190z" />
    <glyph glyph-name="uptop" unicode="&#xe6e7;" 
d="M444 32q-8 0 -14 -5.5t-6 -13.5v-99q0 -8 6 -14t14 -6t14 6t6 14v99q0 8 -6 13.5t-14 5.5zM727 331q2 128 -64 241h-300q-66 -113 -64 -241q-19 -12 -29 -21t-21 -24.5t-14 -37t-1 -52.5q5 -58 41.5 -99.5t63.5 -37.5q7 1 12.5 7.5t7.5 12.5l2 6l10 44q5 -8 12 -18h261
l12 18l10 -44q6 -26 22 -26q27 -2 63.5 38.5t40.5 98.5q3 31 -0.5 52.5t-14 37t-20.5 24.5t-30 21zM513 333q-5 0 -12 1t-22.5 6.5t-27.5 15.5t-22.5 30t-12.5 47q1 26 11 45.5t22 29.5t28 16.5t23.5 7.5t12.5 2q6 -1 13 -2t23 -7.5t28.5 -16.5t22.5 -29.5t11 -45.5
q-3 -27 -13.5 -47t-22.5 -30t-27.5 -15.5t-22.5 -6.5t-12 -1zM517 27q-8 0 -14 -5.5t-6 -14.5v-146q0 -9 6 -14.5t14 -5.5t14 5.5t6 14.5v146q0 9 -6 14.5t-14 5.5zM514 735v0h-1v0v0q-9 -5 -28.5 -20.5t-55.5 -54t-62 -83.5h293q-27 45 -62.5 83.5t-55.5 54t-28 20.5z
M584.5 27q-8.5 0 -14 -5.5t-5.5 -14.5v-70q0 -8 5.5 -14t14 -6t14.5 6t6 14v70q0 9 -6 14.5t-14.5 5.5zM431 58q13 1 82 0v0v0h1v0q69 1 82 0q11 0 44 48h-253q33 -48 44 -48z" />
    <glyph glyph-name="qq" unicode="&#xe722;" 
d="M840 167q-6 78 -81 162q3 7 4.5 21t-4.5 36.5t-23 38.5v3q0 103 -64.5 171.5t-159.5 68.5t-159.5 -68.5t-64.5 -171.5v-3q-17 -16 -23 -38.5t-4.5 -36.5t4.5 -21q-75 -84 -81 -162q-2 -41 11 -58q7 -6 17 -4t23.5 17t23.5 37q13 -45 52 -97q-25 -6 -40.5 -23.5t-16.5 -36
t6 -34.5q23 -36 92 -36q102 0 145 40q5 5 15 5t15 -5q43 -40 145 -40q69 0 92 36q7 16 6 34.5t-16.5 36t-40.5 23.5q39 52 52 97q10 -22 23.5 -37t23.5 -17t17 4q13 17 11 58v0zM840 167z" />
    <glyph glyph-name="xuanze" unicode="&#xe709;" 
d="M512 747q-91 0 -173.5 -35.5t-142.5 -95.5t-95.5 -142.5t-35.5 -173.5t35.5 -173.5t95.5 -142.5t142.5 -95.5t173.5 -35.5t173.5 35.5t142.5 95.5t95.5 142.5t35.5 173.5t-35.5 173.5t-95.5 142.5t-142.5 95.5t-173.5 35.5zM512 -104q-110 0 -203 54t-147 147t-54 203
t54 203t147 147t203 54t203 -54t147 -147t54 -203t-54 -203t-147 -147t-203 -54zM793 513l-371 -371l-191 191l-27 -27l218 -219l28 28l370 370z" />
    <glyph glyph-name="shouji" unicode="&#xe61d;" 
d="M461 -52q0 22 15 37.5t36 15.5t36 -15.5t15 -37.5t-15 -37.5t-36 -15.5t-36 15.5t-15 37.5v0zM302 705h420q18 0 31.5 -13.5t13.5 -33.5v-524q0 -20 -13.5 -33.5t-31.5 -13.5h-420q-18 0 -31.5 13.5t-13.5 33.5v524q0 20 13.5 33.5t31.5 13.5v0zM156 -127q0 -35 23.5 -60
t57.5 -25h550q34 0 57.5 25t23.5 60v854q0 35 -23.5 60t-57.5 25h-550q-34 0 -57.5 -25t-23.5 -60v-854v0zM156 -127z" />
    <glyph glyph-name="site" unicode="&#xe646;" 
d="M512 790q-87 0 -160 -42.5t-115.5 -116t-42.5 -160.5q0 -68 30.5 -143t68.5 -129.5t88 -108.5t72 -74t36 -32q10 -8 22.5 -8t22.5 8q14 12 36 32t72 74t88 108.5t68.5 129.5t30.5 143q0 87 -42.5 160.5t-115.5 116t-159 42.5v0zM512 392q-49 0 -83.5 34.5t-34.5 83.5
t34.5 83t83 34t83.5 -34t35 -83t-35 -83.5t-83 -34.5v0zM512 392z" />
    <glyph glyph-name="iconfontshanchu" unicode="&#xe607;" 
d="M513.5 892q-103.5 0 -197.5 -40.5t-162.5 -109t-109 -162.5t-40.5 -197.5t40.5 -197.5t109 -162.5t162.5 -109t197.5 -40.5t197.5 40.5t162.5 109t109 162.5t40.5 197.5t-40.5 197.5t-109 162.5t-162.5 109t-197.5 40.5zM768 192l-64 -64l-191 191l-191 -191l-63 64
l191 191l-191 191l63 63l191 -191l191 191l64 -63l-191 -191z" />
    <glyph glyph-name="jifen1" unicode="&#xe63d;" 
d="M264 670q-38 -22 -38 -48v-47q0 -26 38.5 -48t104 -35t143 -13t143.5 13t104.5 35t38.5 48v47q0 26 -38.5 48t-104.5 35t-143 13t-143.5 -13t-104.5 -35zM226 352v-63q0 -26 38.5 -48t104.5 -35t143 -13t143 13t104.5 35t38.5 48v63q-44 -31 -121 -47t-165 -16t-165 16
t-121 47zM226 209v-63q0 -26 38.5 -48t104.5 -35q65 -13 143 -13q77 0 143 13t104.5 35t38.5 48v63q-44 -31 -121 -47t-165 -16t-165 16t-121 47zM226 495v-63q0 -26 38.5 -48t104.5 -35t143 -13t143 13t104.5 35t38.5 48v63q-44 -31 -121 -47t-165 -16t-165 16t-121 47v0z
" />
    <glyph glyph-name="weibo" unicode="&#xe619;" 
d="M722 428q-15 3 -19.5 9t-1.5 11l3 5q2 2 4 6t5.5 15.5t4 22t-4 24.5t-15.5 25q-14 14 -36 18t-44 0.5t-42 -9t-32 -10.5l-12 -5q-10 -3 -16.5 -4.5t-10 0t-5 3.5t-1.5 7t0.5 9t2.5 12.5t3 13.5q0 15 -2 27t-10.5 26t-22.5 21t-39.5 6.5t-59.5 -12.5q-34 -11 -69 -34
t-61.5 -48t-48 -48.5t-33 -38.5l-11.5 -15q-65 -88 -62 -164v-5q5 -47 28 -84.5t55 -60.5t75.5 -39t83 -23.5t84.5 -11.5q73 -5 151 12t145.5 59.5t94.5 100.5q17 35 17 65.5t-10.5 49.5t-28 33.5t-32.5 21.5t-27 9v0zM422 123q-105 -5 -180 41.5t-75 116.5t74.5 120.5
t180.5 55.5q108 5 181.5 -35.5t73.5 -109.5q0 -72 -75 -128.5t-180 -60.5v0zM394 395q-125 -15 -125 -150v-4t2 -11.5t5.5 -16t11.5 -16t19 -14.5q64 -31 120.5 -19t90.5 56q13 17 17.5 41t-2 49.5t-22 46t-46 32t-71.5 6.5v0zM359 209q-20 -3 -34 7t-14 27t13 31.5t32 16.5
q22 2 36 -8.5t14 -28.5q0 -16 -14 -29.5t-33 -15.5v0zM442 280q-16 -11 -24 2q-5 6 -3 14t8 13q8 6 15.5 5t10.5 -7q8 -14 -7 -27v0zM791 485q9 0 15 6t8 14v1.5v1.5q4 31 -1.5 55.5t-16.5 38t-25 22t-28.5 11t-27 3t-20.5 -0.5l-8 -1q-10 0 -16.5 -7t-6.5 -16.5t6.5 -16
t16.5 -6.5q30 6 48 0.5t25 -19t9 -27.5t0 -25l-2 -11q0 -9 7 -16t17 -7v0zM774 756q-53 13 -116 -1l-1.5 -0.5l-1.5 -0.5h-1q-11 -3 -17.5 -12.5t-6.5 -20.5q0 -14 9.5 -23.5t23.5 -9.5q18 2 31 7q5 0 17 1.5t32 -4t40.5 -13t42 -25.5t35.5 -42q5 -11 8.5 -22.5t5.5 -20.5
t2.5 -18.5t0 -15.5t-1 -13t-1.5 -10.5t-2 -7.5l-1 -4q-7 -16 -7 -33q0 -14 9.5 -22.5t24.5 -8.5q10 0 14.5 1t10 7t7.5 20h1q13 47 13.5 88t-10.5 70.5t-28 53t-40.5 39.5t-46 26t-46.5 15v0z" />
    <glyph glyph-name="xiayiye" unicode="&#xe601;" 
d="M244 18q0 -22 10 -31q2 -2 5 -4q10 -7 21.5 -7t26.5 12l463 342q11 11 10 26q1 14 -10 25l-465 344q-28 21 -51 0q-10 -10 -10 -32v-675v0z" />
    <glyph glyph-name="shengri" unicode="&#xe6bb;" 
d="M930 56h-845q-27 0 -45.5 -19t-18.5 -47t18.5 -47t45.5 -19h845q28 0 46 19t18 47t-18 47t-46 19zM928 299q0 4 -1 10t-5.5 21t-13 27t-26.5 21.5t-43 9.5h-663q-25 0 -43 -9.5t-26.5 -21.5t-13 -27t-5 -21t-0.5 -10v0v-198h840v198zM176 609h177v-177h-177v177zM419 609
h177v-177h-177v177zM662 609h177v-177h-177v177zM231 653q-11 6 -11 22q0 19 13 39t31.5 20t31.5 -21t13 -38q0 -7 -3 -12.5t-6 -7.5l-2 -2q2 0 5.5 0.5t13 4t17 9.5t13.5 20t6 32q0 30 -19 62.5t-39.5 51.5t-30.5 19t-30.5 -19.5t-39 -52t-18.5 -61.5q0 -18 5.5 -32t14 -20
t16.5 -9.5t14 -4.5h5zM474 653q-11 6 -11 22q0 19 13 39t31.5 20t31.5 -21t13 -38q0 -7 -3 -12.5t-6 -7.5l-2 -2q2 0 5.5 0.5t13 4t17 9.5t13.5 20t6 32q0 30 -19 62.5t-39.5 51.5t-29.5 19q-10 0 -31 -19.5t-39.5 -52t-18.5 -61.5q0 -55 46 -65zM718 653q-12 6 -12 22
q0 19 13 39t31.5 20t31.5 -21t13 -38q0 -7 -3 -12.5t-5 -7.5l-3 -2q2 0 6 0.5t13.5 4t16.5 9.5t13 20t6 32q0 30 -18.5 62.5t-39.5 51.5t-30 19q-10 0 -31 -19.5t-39.5 -52t-18.5 -61.5q0 -18 6 -32t14 -20t16 -9.5t14 -4.5h6z" />
    <glyph glyph-name="biaoqing" unicode="&#xe69e;" 
d="M513 -120q-102 0 -195.5 40t-160.5 107.5t-107 160.5t-40 195t40 195.5t107 160.5t160.5 107t195.5 40t195 -40t160.5 -107t107.5 -160.5t40 -195.5t-40 -195t-107.5 -160.5t-160.5 -107.5t-195 -40zM228 335v0v0v0zM420 600q-23 23 -55.5 23t-55 -23t-22.5 -55t22.5 -55
t55 -23t55.5 23t23 55t-23 55zM727 600q-23 23 -55.5 23t-55.5 -23t-23 -55t23 -55t55.5 -23t55.5 23t23 55t-23 55zM771 335v0h-516v0q-11 0 -19 -7.5t-8 -19.5q0 -6 2 -11q10 -71 53 -122.5t103 -75t127 -22.5v0q67 -1 127 22.5t103 75t53 122.5q2 5 2 11v0q0 12 -8 19.5
t-19 7.5v0zM798 335v0v0v0v0z" />
    <glyph glyph-name="shipin" unicode="&#xe600;" 
d="M1006 675q-11 7 -62 -11t-96 -39l-45 -22v8q0 57 -40.5 97.5t-96.5 40.5h-529q-56 1 -96.5 -39t-40.5 -97v-458q0 -57 40 -97.5t97 -40.5h529q56 0 96.5 40.5t40.5 97.5v10l6 -3t17 -8t24.5 -11t29.5 -12.5t32 -13t31 -12t27.5 -9t22 -4.5t13.5 1q11 8 16 150t0 283.5
t-16 148.5zM291 165v440l348 -219z" />
    <glyph glyph-name="gongsi" unicode="&#xe60a;" 
d="M580 666q-13 10 -28 4l-409 -158q-15 -6 -15 -22v-538q0 -6 4.5 -11t11.5 -5h554q6 0 11 5t5 11v594q0 16 -13 26zM493 187q0 -7 -4.5 -13t-11.5 -7l-229 -56q-7 -2 -11.5 1.5t-4.5 10.5v23q0 7 4.5 13t11.5 7l229 56q7 2 11.5 -1.5t4.5 -10.5v-23zM493 297
q0 -6 -4.5 -12t-11.5 -7l-229 -56q-7 -2 -11.5 1.5t-4.5 10.5v23q0 7 4.5 12.5t11.5 7.5l229 56q7 2 11.5 -2t4.5 -10v-24zM493 408q0 -6 -4.5 -12t-11.5 -8l-229 -56q-7 -1 -11.5 2.5t-4.5 10.5v23q0 7 4.5 12.5t11.5 7.5l229 56q7 1 11.5 -2.5t4.5 -9.5v-24zM580 666
q-13 10 -28 4l-409 -158q-15 -6 -15 -22v-538q0 -6 4.5 -11t11.5 -5h554q6 0 11 5t5 11v594q0 16 -13 26zM493 187q0 -7 -4.5 -13t-11.5 -7l-229 -56q-7 -2 -11.5 1.5t-4.5 10.5v23q0 7 4.5 13t11.5 7l229 56q7 2 11.5 -1.5t4.5 -10.5v-23zM493 297q0 -6 -4.5 -12t-11.5 -7
l-229 -56q-7 -2 -11.5 1.5t-4.5 10.5v23q0 7 4.5 12.5t11.5 7.5l229 56q7 2 11.5 -2t4.5 -10v-24zM493 408q0 -6 -4.5 -12t-11.5 -8l-229 -56q-7 -1 -11.5 2.5t-4.5 10.5v23q0 7 4.5 12.5t11.5 7.5l229 56q7 1 11.5 -2.5t4.5 -9.5v-24zM930 -1q-4 0 -8 -1q-3 1 -6 1h-58
q-7 0 -11.5 4.5t-4.5 10.5v699q0 16 -13 25l-123 90q-13 9 -28 4l-376 -101q-6 -2 -10.5 -8t-4.5 -13v-73v0q0 -13 9.5 -22t23 -9t22.5 9t9 22v32q3 13 15 17l300 77q15 5 28 -4l71 -52q13 -9 13 -25v-730q0 -6 4.5 -11t11.5 -5h122q3 0 6 1q4 -1 8 -1q14 0 23 9.5t9 22
t-9 22t-23 9.5v0zM148 -64h-52q-13 0 -22.5 9.5t-9.5 23t9.5 22.5t22.5 9h53q13 0 22.5 -9t9.5 -22.5t-9.5 -23t-23.5 -9.5z" />
    <glyph glyph-name="jifen2" unicode="&#xe634;" 
d="M112 612q0 -56 53.5 -103.5t145.5 -75t201 -27.5t201 27.5t145.5 75t53.5 103.5t-53.5 103t-145.5 74.5t-201 27.5t-201 -27.5t-145.5 -74.5t-53.5 -103zM512 345q-121 0 -220 33.5t-146 88.5q-34 -39 -34 -83q0 -56 53.5 -103t145.5 -74.5t201 -27.5t201 27.5
t145.5 74.5t53.5 103q0 44 -34 83q-47 -55 -146 -88.5t-220 -33.5zM512 111q-122 0 -222 34.5t-146 90.5q-32 -38 -32 -80q0 -56 53.5 -103t145.5 -74.5t201 -27.5t201 27.5t145.5 74.5t53.5 103q0 42 -32 80q-46 -56 -146 -90.5t-222 -34.5z" />
    <glyph glyph-name="qiandao1" unicode="&#xe602;" 
d="M848 773h-78v-63q0 -17 -14 -29.5t-34.5 -12.5t-34.5 12.5t-14 29.5v63h-301v-63q0 -17 -14.5 -29.5t-34.5 -12.5t-34.5 12.5t-14.5 29.5v63h-77q-39 0 -67 -24.5t-28 -59.5v-670q0 -34 28 -58.5t67 -24.5h651q39 0 66.5 24.5t27.5 58.5v670q0 35 -27.5 59.5t-66.5 24.5z
M881 32q0 -11 -10 -19t-23 -8h-651q-14 0 -23.5 8t-9.5 19v505h717v-505zM324 684q10 0 16.5 5.5t6.5 12.5v112q0 8 -6.5 13t-16.5 5t-16.5 -5t-6.5 -13v-112q0 -7 6.5 -12.5t16.5 -5.5v0zM721 684q9 0 16 5.5t7 12.5v112q0 8 -7 13t-16.5 5t-16.5 -5t-7 -13v-112
q0 -7 7 -12.5t17 -5.5v0zM737 386l-229 -264q-9 -11 -22 -11t-22 11l-129 148q-9 10 -9 25t9.5 25.5t22 10.5t22.5 -10l106 -123l207 238q9 11 22 11t22 -10.5t9 -25.5t-9 -25v0v0z" />
    <glyph glyph-name="bofang1" unicode="&#xe67a;" 
d="M512 832q-122 0 -225 -60t-163 -163t-60 -225t60 -225t163 -163t225 -60t225 60t163 163t60 225t-60 225t-163 163t-225 60zM512 -19q-110 0 -202.5 54t-146.5 146.5t-54 202.5t54 202.5t146.5 146.5t202.5 54t202.5 -54t146.5 -146.5t54 -202.5t-54 -202.5
t-146.5 -146.5t-202.5 -54zM715 416q-41 28 -151.5 93.5t-116.5 68.5q-22 15 -38.5 9t-17.5 -31v-347q1 -24 19 -30t37 6q33 19 131 78.5t137 83.5l2.5 2t6.5 5t8 8t6 11t1 12.5t-7 14.5t-17 16z" />
    <glyph glyph-name="renzheng3-copy" unicode="&#xe95d;" 
d="M893 258q-5 5 -13.5 4.5t-13.5 -5.5l-239 -239q-6 -6 -13.5 -6t-12.5 6l-78 78q-5 5 -12.5 5t-12.5 -5t-5 -12.5t5 -12.5l78 -78q16 -15 38 -15t37 15l242 240q5 5 5 12.5t-5 12.5zM765 262q6 -5 13 -5t12 5.5t4.5 12.5t-5.5 12q-78 71 -182 94q54 27 86.5 78.5
t32.5 113.5q0 89 -63.5 152t-152.5 63t-152 -63t-63 -152q0 -65 35 -117.5t91 -78.5q-128 -34 -211 -140t-83 -241q0 -7 5 -12.5t12.5 -5.5t12.5 5t5 13q0 97 48 180t131 131.5t181 48.5q140 0 243 -94zM330 572.5q0 74.5 53 127.5t127.5 53t127.5 -53t53 -127.5t-53 -127.5
t-127.5 -53t-127.5 53t-53 127.5z" />
    <glyph glyph-name="renzheng3-copy1" unicode="&#xe95e;" 
d="M893 258q-5 5 -13.5 4.5t-13.5 -5.5l-239 -239q-6 -6 -13.5 -6t-12.5 6l-78 78q-5 5 -12.5 5t-12.5 -5t-5 -12.5t5 -12.5l78 -78q16 -15 38 -15t37 15l242 240q5 5 5 12.5t-5 12.5zM765 262q6 -5 13 -5t12 5.5t4.5 12.5t-5.5 12q-78 71 -182 94q54 27 86.5 78.5
t32.5 113.5q0 89 -63.5 152t-152.5 63t-152 -63t-63 -152q0 -65 35 -117.5t91 -78.5q-128 -34 -211 -140t-83 -241q0 -7 5 -12.5t12.5 -5.5t12.5 5t5 13q0 97 48 180t131 131.5t181 48.5q140 0 243 -94zM330 572.5q0 74.5 53 127.5t127.5 53t127.5 -53t53 -127.5t-53 -127.5
t-127.5 -53t-127.5 53t-53 127.5z" />
    <glyph glyph-name="shoucang-copy" unicode="&#xe95f;" 
d="M510 753q15 0 21 -12l97 -198q9 -18 29 -21l224 -33q14 -2 18 -14t-5 -20l-164 -161q-14 -14 -11 -33l38 -222q2 -13 -9 -20q-6 -4 -13 -4q-6 0 -12 3l-195 102q-9 5 -18.5 5t-18.5 -5l-195 -102q-5 -3 -11 -3q-8 0 -14 4q-11 7 -9 20l38 222q3 19 -11 33l-164 161
q-9 8 -5 20t18 14l224 33q20 3 29 21l98 198q6 12 21 12zM510 791q-18 0 -33.5 -9t-23.5 -25l-97 -197l-223 -33q-18 -2 -31 -13t-19 -27q-12 -34 14 -60l164 -160l-38 -222q-6 -36 26 -58q16 -10 36 -10q15 0 30 7l195 103l195 -103q14 -7 30 -7q19 0 35 10q32 22 26 58
l-38 222l164 160q26 26 14 60q-5 16 -18.5 27t-30.5 13l-224 33l-97 197q-8 16 -23 25t-33 9v0z" />
    <glyph glyph-name="shoucang-copy1" unicode="&#xe960;" 
d="M510 753q15 0 21 -12l97 -198q9 -18 29 -21l224 -33q14 -2 18 -14t-5 -20l-164 -161q-14 -14 -11 -33l38 -222q2 -13 -9 -20q-6 -4 -13 -4q-6 0 -12 3l-195 102q-9 5 -18.5 5t-18.5 -5l-195 -102q-5 -3 -11 -3q-8 0 -14 4q-11 7 -9 20l38 222q3 19 -11 33l-164 161
q-9 8 -5 20t18 14l224 33q20 3 29 21l98 198q6 12 21 12zM510 791q-18 0 -33.5 -9t-23.5 -25l-97 -197l-223 -33q-18 -2 -31 -13t-19 -27q-12 -34 14 -60l164 -160l-38 -222q-6 -36 26 -58q16 -10 36 -10q15 0 30 7l195 103l195 -103q14 -7 30 -7q19 0 35 10q32 22 26 58
l-38 222l164 160q26 26 14 60q-5 16 -18.5 27t-30.5 13l-224 33l-97 197q-8 16 -23 25t-33 9v0z" />
    <glyph glyph-name="shezhi-copy" unicode="&#xe961;" 
d="M512 240q60 0 102 42t42 102t-42 102t-102 42t-102 -42t-42 -102t42 -102t102 -42zM512 490q44 0 75 -31t31 -75t-31 -75t-75 -31t-75 31t-31 75t31 75t75 31zM52 334q1 -25 18 -46.5t50 -21.5h50q7 -21 17 -42l-35 -35q-16 -16 -19 -35.5t3 -34.5t16 -26l70 -70
q21 -20 49 -20q26 0 47 21l35 34q20 -10 42 -17v-49q0 -36 22 -52t46 -16h98q25 0 47 17t22 51v49q21 7 42 17l34 -34q21 -21 47 -21q29 0 50 21l69 69q11 11 17 26t2.5 34.5t-19.5 36.5l-34 34q10 21 17 42h49q30 0 48 19q20 20 20 50v98q0 25 -17 46.5t-51 21.5h-49
q-8 22 -18 42l35 35q21 21 21 47q0 29 -21 49l-69 69q-21 21 -50 21q-26 0 -47 -21l-35 -35q-20 10 -42 18v50q0 33 -21 50t-47 18h-98q-25 -1 -46.5 -18t-21.5 -50v-50q-21 -8 -42 -18l-35 36q-21 20 -47 20q-28 0 -49 -20l-70 -70q-10 -11 -16 -26t-3 -34.5t19 -35.5
l35 -35q-9 -20 -17 -42h-50q-33 0 -50 -21.5t-18 -46.5v-99v0zM120 462h78l5 14q9 33 25 61l7 13l-56 55q-20 20 0 42l69 69q11 10 23 10q10 0 20 -9l55 -56l13 7q29 16 61 25l14 4v79q0 28 29 29h98q30 -1 30 -29v-79l14 -4q32 -9 61 -25l13 -7l55 55q9 10 19 10
q12 0 23 -10l69 -69q10 -10 10 -22q0 -10 -10 -20l-45 -45l-10 -10l7 -13q16 -28 25 -61l4 -14h78q29 0 29 -29v-98q0 -30 -29 -30h-78l-4 -14q-9 -32 -25 -61l-7 -13l55 -54q20 -21 0 -43l-70 -69q0 -1 -2.5 -3t-8 -4.5t-11.5 -2.5q-10 0 -20 10q-11 12 -44 44l-10 11
l-12 -7q-29 -16 -62 -26l-14 -4v-77q0 -29 -30 -30h-98q-29 1 -29 30v77l-14 4q-33 10 -62 26l-12 7l-55 -55q-10 -10 -20 -10q-12 0 -22 10l-69 69q-21 22 -1 42l55 55l-6 13q-16 28 -26 61l-4 14h-78q-12 0 -19 6.5t-8.5 12t-2.5 11.5v97q2 30 30 30v0z" />
    <glyph glyph-name="shezhi-copy1" unicode="&#xe962;" 
d="M512 240q60 0 102 42t42 102t-42 102t-102 42t-102 -42t-42 -102t42 -102t102 -42zM512 490q44 0 75 -31t31 -75t-31 -75t-75 -31t-75 31t-31 75t31 75t75 31zM52 334q1 -25 18 -46.5t50 -21.5h50q7 -21 17 -42l-35 -35q-16 -16 -19 -35.5t3 -34.5t16 -26l70 -70
q21 -20 49 -20q26 0 47 21l35 34q20 -10 42 -17v-49q0 -36 22 -52t46 -16h98q25 0 47 17t22 51v49q21 7 42 17l34 -34q21 -21 47 -21q29 0 50 21l69 69q11 11 17 26t2.5 34.5t-19.5 36.5l-34 34q10 21 17 42h49q30 0 48 19q20 20 20 50v98q0 25 -17 46.5t-51 21.5h-49
q-8 22 -18 42l35 35q21 21 21 47q0 29 -21 49l-69 69q-21 21 -50 21q-26 0 -47 -21l-35 -35q-20 10 -42 18v50q0 33 -21 50t-47 18h-98q-25 -1 -46.5 -18t-21.5 -50v-50q-21 -8 -42 -18l-35 36q-21 20 -47 20q-28 0 -49 -20l-70 -70q-10 -11 -16 -26t-3 -34.5t19 -35.5
l35 -35q-9 -20 -17 -42h-50q-33 0 -50 -21.5t-18 -46.5v-99v0zM120 462h78l5 14q9 33 25 61l7 13l-56 55q-20 20 0 42l69 69q11 10 23 10q10 0 20 -9l55 -56l13 7q29 16 61 25l14 4v79q0 28 29 29h98q30 -1 30 -29v-79l14 -4q32 -9 61 -25l13 -7l55 55q9 10 19 10
q12 0 23 -10l69 -69q10 -10 10 -22q0 -10 -10 -20l-45 -45l-10 -10l7 -13q16 -28 25 -61l4 -14h78q29 0 29 -29v-98q0 -30 -29 -30h-78l-4 -14q-9 -32 -25 -61l-7 -13l55 -54q20 -21 0 -43l-70 -69q0 -1 -2.5 -3t-8 -4.5t-11.5 -2.5q-10 0 -20 10q-11 12 -44 44l-10 11
l-12 -7q-29 -16 -62 -26l-14 -4v-77q0 -29 -30 -30h-98q-29 1 -29 30v77l-14 4q-33 10 -62 26l-12 7l-55 -55q-10 -10 -20 -10q-12 0 -22 10l-69 69q-21 22 -1 42l55 55l-6 13q-16 28 -26 61l-4 14h-78q-12 0 -19 6.5t-8.5 12t-2.5 11.5v97q2 30 30 30v0z" />
    <glyph glyph-name="4-copy" unicode="&#xe963;" 
d="M797 420q-50 28 -133.5 28t-133.5 -28q-21 -12 -32 -27t-11 -30v-245q0 -16 11 -30q11 -16 32 -28q50 -28 134 -28q82 0 132 28q22 12 33 27t11 30v4v242q0 15 -10 30q-12 15 -33 27zM804 176v-58q0 -17 -40 -33.5t-100 -16.5t-100.5 16.5t-40.5 33.5v69l9 -5
q50 -27 131.5 -27t131.5 27l9 5v-11zM804 299v-59q0 -17 -40 -33t-100 -16t-100.5 16t-40.5 33v69l9 -5q50 -27 131.5 -27t131.5 27l9 5v-10zM664 313q-60 0 -100.5 16.5t-40.5 33.5t40.5 33t100.5 16t100 -16t40 -33t-40 -33.5t-100 -16.5zM218 546l10 -7q37 -25 97 -39
q58 -13 122 -13t122 13q60 14 97 39l10 7v-69h36v133q0 28 -22 51q-21 23 -61 39q-76 33 -181.5 33t-182.5 -33q-39 -16 -60 -39q-23 -23 -23 -51v-381q0 -28 23 -51q21 -23 60 -39q74 -32 176 -33v36q-94 1 -159 28q-30 12 -46 27q-18 16 -18 32v115v11l10 -6
q37 -25 97 -39q55 -13 116 -14v36q-94 1 -159 29q-30 12 -46 27q-18 16 -18 31v115v12zM236 642q16 15 46 27q68 28 165.5 28t164.5 -28q30 -12 46 -27q18 -16 18 -32t-18 -31q-16 -16 -46 -28q-67 -28 -165 -28t-165 28q-30 12 -46 28q-18 15 -18 31t18 32z" />
    <glyph glyph-name="4-copy1" unicode="&#xe964;" 
d="M797 420q-50 28 -133.5 28t-133.5 -28q-21 -12 -32 -27t-11 -30v-245q0 -16 11 -30q11 -16 32 -28q50 -28 134 -28q82 0 132 28q22 12 33 27t11 30v4v242q0 15 -10 30q-12 15 -33 27zM804 176v-58q0 -17 -40 -33.5t-100 -16.5t-100.5 16.5t-40.5 33.5v69l9 -5
q50 -27 131.5 -27t131.5 27l9 5v-11zM804 299v-59q0 -17 -40 -33t-100 -16t-100.5 16t-40.5 33v69l9 -5q50 -27 131.5 -27t131.5 27l9 5v-10zM664 313q-60 0 -100.5 16.5t-40.5 33.5t40.5 33t100.5 16t100 -16t40 -33t-40 -33.5t-100 -16.5zM218 546l10 -7q37 -25 97 -39
q58 -13 122 -13t122 13q60 14 97 39l10 7v-69h36v133q0 28 -22 51q-21 23 -61 39q-76 33 -181.5 33t-182.5 -33q-39 -16 -60 -39q-23 -23 -23 -51v-381q0 -28 23 -51q21 -23 60 -39q74 -32 176 -33v36q-94 1 -159 28q-30 12 -46 27q-18 16 -18 32v115v11l10 -6
q37 -25 97 -39q55 -13 116 -14v36q-94 1 -159 29q-30 12 -46 27q-18 16 -18 31v115v12zM236 642q16 15 46 27q68 28 165.5 28t164.5 -28q30 -12 46 -27q18 -16 18 -32t-18 -31q-16 -16 -46 -28q-67 -28 -165 -28t-165 28q-30 12 -46 28q-18 15 -18 31t18 32z" />
    <glyph glyph-name="jubao-copy" unicode="&#xe965;" horiz-adv-x="1025" 
d="M524 525q-9 0 -16 -6.5t-7 -15.5v-268q0 -9 7 -15.5t16 -6.5t15.5 6.5t6.5 15.5v268q0 9 -6.5 15.5t-15.5 6.5zM524 168q-9 0 -16 -6.5t-7 -15.5v-45q0 -9 7 -15.5t16 -6.5t15.5 6.5t6.5 15.5v45q0 9 -6.5 15.5t-15.5 6.5zM1011 17l-424 736q-24 43 -63 43t-64 -43
l-423 -736q-14 -24 -14 -46q0 -26 20 -45.5t58 -19.5h846q37 0 57 19.5t20 45.5q0 22 -13 46zM947 -49h-846q-33 0 -33 20q0 11 7 23l424 737q11 19 24.5 19t25.5 -19l423 -737q7 -12 7 -23q0 -20 -32 -20v0z" />
    <glyph glyph-name="jubao-copy1" unicode="&#xe966;" horiz-adv-x="1025" 
d="M524 525q-9 0 -16 -6.5t-7 -15.5v-268q0 -9 7 -15.5t16 -6.5t15.5 6.5t6.5 15.5v268q0 9 -6.5 15.5t-15.5 6.5zM524 168q-9 0 -16 -6.5t-7 -15.5v-45q0 -9 7 -15.5t16 -6.5t15.5 6.5t6.5 15.5v45q0 9 -6.5 15.5t-15.5 6.5zM1011 17l-424 736q-24 43 -63 43t-64 -43
l-423 -736q-14 -24 -14 -46q0 -26 20 -45.5t58 -19.5h846q37 0 57 19.5t20 45.5q0 22 -13 46zM947 -49h-846q-33 0 -33 20q0 11 7 23l424 737q11 19 24.5 19t25.5 -19l423 -737q7 -12 7 -23q0 -20 -32 -20v0z" />
    <glyph glyph-name="shanchu-copy" unicode="&#xe967;" 
d="M860.5 599q-8.5 0 -14.5 -6t-6 -15v-554q0 -17 -12 -29t-29 -12h-574q-17 0 -29.5 12t-12.5 29v554q0 9 -6 15t-14 6q-16 0 -20 -16v0l-1 1v-560q0 -34 24.5 -58t58.5 -24h574q34 0 58 24t24 58v554q0 9 -6 15t-14.5 6zM368 106v451q0 9 -6 15t-14.5 6t-14.5 -6t-6 -15
v-451q0 -9 6 -15t14.5 -6t14.5 6t6 15zM697 106v451q0 9 -6 15t-14.5 6t-14.5 -6t-6 -15v-451q0 -9 6 -15t14.5 -6t14.5 6t6 15zM923 742h-237l-76 76q-6 6 -15 6h-1h-164h-0.5h-0.5q-9 0 -15 -6l-76 -76h-237q-8 0 -14 -6t-6 -14.5t6 -14.5t14 -6h247h1q9 0 16 7l75 75h144
l75 -75q7 -7 16 -7h1h247q8 0 14 6t6 14.5t-6 14.5t-14 6zM532 106v451q0 9 -6 15t-14.5 6t-14.5 -6t-6 -15v-451q0 -9 6 -15t14.5 -6t14.5 6t6 15z" />
    <glyph glyph-name="shanchu-copy1" unicode="&#xe968;" 
d="M860.5 599q-8.5 0 -14.5 -6t-6 -15v-554q0 -17 -12 -29t-29 -12h-574q-17 0 -29.5 12t-12.5 29v554q0 9 -6 15t-14 6q-16 0 -20 -16v0l-1 1v-560q0 -34 24.5 -58t58.5 -24h574q34 0 58 24t24 58v554q0 9 -6 15t-14.5 6zM368 106v451q0 9 -6 15t-14.5 6t-14.5 -6t-6 -15
v-451q0 -9 6 -15t14.5 -6t14.5 6t6 15zM697 106v451q0 9 -6 15t-14.5 6t-14.5 -6t-6 -15v-451q0 -9 6 -15t14.5 -6t14.5 6t6 15zM923 742h-237l-76 76q-6 6 -15 6h-1h-164h-0.5h-0.5q-9 0 -15 -6l-76 -76h-237q-8 0 -14 -6t-6 -14.5t6 -14.5t14 -6h247h1q9 0 16 7l75 75h144
l75 -75q7 -7 16 -7h1h247q8 0 14 6t6 14.5t-6 14.5t-14 6zM532 106v451q0 9 -6 15t-14.5 6t-14.5 -6t-6 -15v-451q0 -9 6 -15t14.5 -6t14.5 6t6 15z" />
    <glyph glyph-name="zhiding-copy-copy" unicode="&#xe96a;" 
d="M535 721q-3 3 -5 4q-3 1 -4 1.5t-4 1.5t-5 1h-5q-17 1 -25 -8l-315 -333q-5 -5 -5 -12q0 -10 10 -16q9 -5 19 -3.5t16 7.5l275 285v-646q0 -2 0.5 -5.5t6.5 -8.5t17 -5q10 0 16 5t7 8.5t1 5.5v646l275 -285q6 -6 16 -7.5t18.5 3.5t10 13t-5.5 15zM903 778h-785
q-10 0 -17 -7t-7 -17.5t7 -17.5t17 -7h785q10 0 17.5 7t7.5 17.5t-7.5 17.5t-17.5 7z" />
    <glyph glyph-name="zhiding-copy-copy1" unicode="&#xe96b;" 
d="M535 721q-3 3 -5 4q-3 1 -4 1.5t-4 1.5t-5 1h-5q-17 1 -25 -8l-315 -333q-5 -5 -5 -12q0 -10 10 -16q9 -5 19 -3.5t16 7.5l275 285v-646q0 -2 0.5 -5.5t6.5 -8.5t17 -5q10 0 16 5t7 8.5t1 5.5v646l275 -285q6 -6 16 -7.5t18.5 3.5t10 13t-5.5 15zM903 778h-785
q-10 0 -17 -7t-7 -17.5t7 -17.5t17 -7h785q10 0 17.5 7t7.5 17.5t-7.5 17.5t-17.5 7z" />
    <glyph glyph-name="chakan" unicode="&#xe96c;" 
d="M899 287q-73 -98 -173.5 -153.5t-214.5 -55.5t-215 55.5t-173 153.5q-32 42 -32 98t32 98q72 98 173 153.5t215 55.5t214.5 -55.5t173.5 -153.5q31 -42 31 -98t-31 -98zM868 441q-68 99 -161.5 153.5t-196 54.5t-195.5 -54.5t-161 -153.5q-16 -24 -16 -55t16 -54
q68 -100 161 -154.5t195.5 -54.5t196 55t161.5 154q16 23 16 54t-16 55zM511 189q-81 0 -138.5 57.5t-57.5 138.5t57.5 138.5t138.5 57.5t138.5 -57.5t57.5 -138.5t-57.5 -138.5t-138.5 -57.5zM511.5 534q-61.5 0 -105 -43.5t-43.5 -105.5t43.5 -105.5t105 -43.5t105 43.5
t43.5 105.5t-43.5 105.5t-105 43.5z" />
    <glyph glyph-name="comment" unicode="&#xe96d;" 
d="M227 65l-1 140q-77 89 -77 202q0 90 50 166.5t136 121t187 44.5t186.5 -44.5t135.5 -121t50 -166.5t-50 -166.5t-135.5 -121t-186.5 -44.5q-66 0 -127 19zM521.5 698q-89.5 0 -165.5 -39t-120.5 -106t-44.5 -146q0 -102 72 -181l5 -6l1 -106l129 23l5 -2q57 -19 119 -19
q89 0 165 39t120.5 106t44.5 146t-44.5 146t-120.5 106t-165.5 39z" />
    <glyph glyph-name="xihuan-white" unicode="&#xe96e;" 
d="M510 51l-4 1q-96 19 -200 99q-53 41 -93 89q-44 53 -67 109q-31 72 -24 148q6 73 44 129q30 47 75 72t97 25q45 0 91 -20q41 -17 81 -50q40 33 81 50q46 20 92 20q51 0 96 -25t76 -72q38 -56 44 -129q6 -76 -24 -148q-24 -56 -68 -109q-40 -48 -93 -89q-104 -80 -200 -99
zM338 680q-41 0 -76.5 -20.5t-59.5 -56.5q-33 -50 -37.5 -113.5t20.5 -123.5q40 -95 139 -173.5t186 -96.5q88 18 186.5 96.5t138.5 173.5q25 60 21 123.5t-37 113.5q-25 36 -60.5 56.5t-75.5 20.5q-78 0 -158 -71l-15 -13l-14 13q-80 71 -158 71z" />
    <glyph glyph-name="xihuan-red" unicode="&#xe96f;" 
d="M512 36l-4 1q-99 19 -207 102q-55 42 -96 92q-46 55 -70 112q-32 75 -25 154q6 75 46 134q31 47 77.5 73.5t99.5 26.5q47 0 95 -21q42 -18 84 -51q42 33 84 51q47 21 95 21q53 0 99.5 -26.5t77.5 -73.5q40 -59 46 -134q7 -79 -25 -154q-24 -57 -70 -112q-41 -50 -96 -92
q-107 -83 -207 -102l-4 -1v0z" />
    <glyph glyph-name="gengduo-copy" unicode="&#xe970;" 
d="M190 382q0 -20 14 -34t34 -14t34 14t14 34t-14 34t-34 14t-34 -14t-14 -34zM462 382q0 -20 14 -34t34 -14t34 14t14 34t-14 34t-34 14t-34 -14t-14 -34zM734 382q0 -20 14 -34t34 -14t34 14t14 34t-14 34t-34 14t-34 -14t-14 -34z" />
    <glyph glyph-name="bofang1-copy" unicode="&#xe971;" 
d="M748 443q4 1 12.5 1.5t31.5 -2t43.5 -10t44 -28t37.5 -50.5q11 -23 11.5 -47t-5.5 -44.5t-18 -41.5t-24.5 -36t-26 -28.5t-20.5 -20t-11 -9.5q-3 -2 -8.5 -8.5t-11 -14.5t-10 -15.5l-7.5 -12.5l-3 -5l-26 5q0 2 -1 7t-4 18t-6.5 22.5t-10 17.5t-13.5 8q-12 1 -30 1
t-35.5 -0.5t-19.5 -0.5q-14 0 -48 19.5t-32 43.5q1 16 24 23t53.5 13t42.5 18q19 21 41.5 81.5t29.5 95.5zM526 702q85 0 146 -64.5t61 -154.5v-26q0 -90 -60.5 -154.5t-146.5 -64.5h-49q-30 0 -53.5 -10.5t-38.5 -30t-22.5 -34t-15.5 -36.5q-1 -2 -2.5 -5.5t-2.5 -5.5
q-1 2 -5 7.5t-7.5 11t-6.5 9.5q-2 3 -15.5 23.5t-21.5 30.5q-8 11 -17.5 21.5t-17.5 19t-16 16.5t-13.5 13t-9.5 8.5t-4 4.5v2l-5 2l-3 2t-7.5 5.5t-10 8.5t-11.5 12.5t-12.5 17.5t-12 23t-9.5 28t-6.5 34.5t-2.5 40.5v26q0 91 60.5 155t146.5 64h191zM526 735h-193
q-101 0 -172 -74t-71 -180v-26q0 -131 77 -191l20 -12q40 -33 73 -75q11 -15 27 -40.5t26.5 -40.5t19.5 -20q4 -5 14 -5t18 13.5t15.5 33t18 39t30.5 33t48 13.5h47q100 0 171 74t71 180v26q2 104 -68.5 178t-171.5 74zM799 460q-7 0 -11.5 -5t-4.5 -12t5 -13t11 -6
q47 -5 76.5 -38.5t29.5 -81.5v-14q0 -13 -2 -24.5t-5.5 -20.5t-7.5 -17.5t-8 -14t-8.5 -10.5t-7.5 -7.5t-5.5 -4.5l-2.5 -2l-2 -3q-26 -21 -45 -44q-5 -6 -12 -17.5t-9 -13.5q-12 -18 -14 -19q-5 5 -5 12q-5 12 -9 20t-12.5 19t-21.5 16.5t-30 5.5h-33q-26 0 -37 2.5
t-24 14.5q-5 4 -12 4t-14 -7q-5 -5 -4 -12.5t6 -10.5q14 -11 28.5 -16.5t24.5 -6.5t30 -1h33q14 0 23 -10t17 -30q5 -12 7.5 -17.5t10 -11.5t17.5 -6q7 0 17 4q9 5 26 33q4 10 18 29l16.5 16.5t15 15.5t6.5 8q61 46 64 129v14q3 60 -35 103.5t-100 50.5q4 0 0 0zM429 321
q-65 0 -112.5 37t-47.5 90q0 7 5 11.5t12 4.5t11.5 -4.5t4.5 -11.5q0 -39 37 -66.5t88 -27.5t88 27.5t37 66.5q0 7 4.5 11.5t12 4.5t12 -4.5t4.5 -11.5q3 -53 -42.5 -90t-113.5 -37zM759 462q38 -2 45 -2q3 -2 2.5 -5.5t-2.5 -7.5l-2 -4l-3 -19l-42 3zM585 151q-4 3 -10.5 8
t-17 21.5t-10.5 32t10 18t20 -3.5l10 -5q-2 -2 -4 -5t3 -15t22 -25q16 -15 11 -20.5t-20 -5.5h-14v0z" />
    <glyph glyph-name="bofang1-copy-copy" unicode="&#xe972;" 
d="M587 115h-147q-23 0 -38.5 15.5t-15.5 38.5v528q0 22 15.5 38t38.5 16h147q22 0 37.5 -15.5t15.5 -38.5v-528q0 -22 -16 -38t-37 -16zM819 531h-160v166q0 29 -21.5 50.5t-50.5 21.5h-147q-30 0 -51.5 -21.5t-21.5 -50.5v-81h-157q-30 0 -51.5 -21.5t-21.5 -51.5v-360
q0 -29 21.5 -50.5t51.5 -21.5h178q1 0 4 1t4 1q25 -17 46 -17h147q22 0 45 17q2 -2 8 -2h179q29 0 50.5 21.5t21.5 50.5v276q-1 29 -23 50.5t-51 21.5zM210 150q-14 -2 -24 7.5t-10 23.5v362q0 14 10 24t24 10h157v-408q0 -3 1 -10t1 -11h-159v2zM620 169q0 -14 -9.5 -24
t-23.5 -10h-147q-14 0 -24 10t-10 24v528q0 14 10 23.5t24 9.5h147q14 0 23.5 -9.5t9.5 -23.5v-528zM852 181q0 -14 -9.5 -23.5t-23.5 -9.5h-162q2 6 2 21v323h160q14 0 23.5 -9.5t9.5 -23.5v-278zM870 34h-712q-8 0 -14.5 -6t-6.5 -15t5.5 -14.5t15.5 -5.5h714q9 0 15 5.5
t6 14.5t-6.5 15t-16.5 6zM303 243h-33v100q0 7 -5.5 12.5t-13.5 5.5t-13.5 -5.5t-5.5 -12.5v-121q0 -7 5.5 -12.5t13.5 -5.5h54q8 0 13.5 5.5t5.5 12.5q-2 9 -8 15t-13 6z" />
    <glyph glyph-name="bofang1-copy-copy-copy" unicode="&#xe973;" 
d="M547 759q5 0 10 -4.5t5 -10.5l10 -80l2 -19l17 -6l54 -23l16 -6l15 10l64 50q2 2 10 2q6 0 11 -4l41 -42q3 -3 4 -9.5t-2 -10.5l-48 -65l-10 -12l6 -17l23 -53l6 -17l19 -2l79 -10q5 0 9.5 -5t4.5 -10v-58q0 -5 -4.5 -9.5t-9.5 -4.5l-79 -11l-19 -2l-6 -16l-23 -54
l-6 -17l10 -14l48 -65q8 -11 -2 -20l-41 -42q-5 -4 -11 -4q-2 0 -5 1t-5 1l-62 44l-15 10l-16 -6l-54 -23l-17 -6l-2 -19l-10 -78q0 -6 -5 -10.5t-10 -4.5h-58q-5 0 -9.5 4.5t-4.5 10.5l-11 78l-2 19l-16 6l-77 29l-14 -10l-65 -50q-2 -2 -10 -2q-6 0 -10 4l-42 42
q-3 3 -4 9t2 11l48 64l10 15l-6 17l-23 53l-6 17l-19 2l-78 10q-6 0 -10.5 5t-4.5 10v58q0 5 4.5 9.5t10.5 4.5l80 11l19 2l6 16l23 54l6 17l-10 14l-50 64q-7 12 2 21l42 42q4 4 10 4q2 0 5 -1t5 -1l65 -48l14 -10l17 6l54 23l16 6l2 19l11 80q0 6 4.5 10.5t9.5 4.5h62v2z
M547 792h-58q-17 0 -30.5 -12t-16.5 -29l-13 -81l-54 -23l-64 48q-14 10 -29 10q-21 0 -33 -14l-41 -42q-13 -12 -14 -30t9 -34l50 -64l-23 -54l-80 -11q-18 -3 -30 -16.5t-12 -30.5v-58q0 -17 12 -31t30 -17l78 -10l23 -54l-48 -62q-10 -14 -9 -33t14 -31l41 -42
q14 -14 33 -14q15 0 29 10l64 48l54 -21l11 -79q3 -17 16.5 -29t30.5 -12h58q17 0 31 12t17 29l10 79l54 23l64 -48q14 -10 29 -10q22 0 33 14l42 42q12 12 13.5 30t-9.5 34l-48 64l23 54l79 10q17 3 29 17t12 31v58q0 17 -12 31t-29 17l-79 10l-23 54l48 64q11 14 9.5 33
t-13.5 31l-42 42q-14 14 -33 14q-15 0 -29 -10l-64 -50l-54 23l-8 77q-3 18 -17 30.5t-31 12.5zM382 382v0q0 -57 40 -97t96.5 -40t96.5 40t40 97v0v0q0 57 -40 97t-96.5 40t-96.5 -40t-40 -97v0zM518 504q50 0 85 -35t35 -85t-35 -85t-84.5 -35t-85 35t-35.5 85t34.5 85
t85.5 35zM518 535q-63 0 -108 -44.5t-45 -108.5t45 -108.5t108.5 -44.5t108 44.5t44.5 108.5q0 63 -45 108t-108 45z" />
    <glyph glyph-name="bofang1-copy-copy-copy-copy" unicode="&#xe974;" 
d="M748.5 454q-9.5 26 -37.5 33l-106 18l-47 99q-4 13 -16 21t-25.5 8t-25.5 -8t-17 -21l-46 -101l-106 -18q-26 -3 -38 -33q-10 -28 11 -49l80 -82l-18 -115q-4 -32 20 -46q24 -17 49 -2l93 53l92 -53q10 -7 23 -7q17 0 26 9q24 17 20 46l-18 115l80 82q16 25 6.5 51z
M748.5 454q-9.5 26 -37.5 33l-106 18l-47 99q-4 13 -16 21t-25.5 8t-25.5 -8t-17 -21l-46 -101l-106 -18q-26 -3 -38 -33q-10 -28 11 -49l80 -82l-18 -115q-4 -32 20 -46q24 -17 49 -2l93 53l92 -53q10 -7 23 -7q17 0 26 9q24 17 20 46l-18 115l80 82q16 25 6.5 51zM627 332
l20 -130q0 -12 -7 -15q-3 -4 -8.5 -4t-9.5 4l-108 59l-108 -59q-11 -4 -18 0q-9 9 -6 15l20 130l-87 95q-7 8 -4 18q4 11 13 11l124 20l53 117q3 9 15 9q11 0 16 -9l53 -117l124 -20q9 0 13 -11q3 -10 -5 -18zM501 461q-34 0 -53 -23q-22 -24 -22 -59q0 -7 4.5 -11.5
t11 -4.5t11 4.5t4.5 11.5q0 22 13 35q11 11 31 11q7 0 11 4.5t4 11.5q0 9 -4.5 14.5t-10.5 5.5zM514 768q102 0 188.5 -50.5t137 -137t50.5 -188.5t-50.5 -188.5t-137 -137t-188.5 -50.5t-188.5 50.5t-136.5 137t-50 188.5t50.5 188.5t137 137t187.5 50.5zM514 801
q-111 0 -205 -55t-149 -149t-55 -205t55 -205t149 -149t205 -55t205 55t149 149t55 205q1 111 -53.5 205t-149 149t-206.5 55z" />
    <glyph glyph-name="bofang1-copy-copy-copy-copy-copy" unicode="&#xe975;" 
d="M520 244l56 -153h-114zM520 308q-6 0 -12 -4t-8 -11l-79 -212q-3 -10 3 -17.5t16 -7.5h157q11 0 17 7.5t3 17.5l-80 212q0 15 -17 15zM403 388q0 -48 34.5 -82.5t82.5 -34.5t82 34.5t34 82.5t-34 82t-82 34t-82.5 -34t-34.5 -82zM520 489q41 0 70 -29t29 -70t-29.5 -71
t-70 -30t-69.5 29t-29 70t29 71t70 30zM519.5 524q-55.5 0 -95.5 -40t-40 -96t39.5 -96t96.5 -40q55 0 95.5 39.5t40.5 96t-40.5 96.5t-96 40zM326 638q-10 0 -16 -5l-12 -12q-47 -47 -71.5 -109t-24.5 -124.5t24.5 -124t71.5 -108.5l2 -2l8 -8l2 -2q8 -4 12 -4
q10 0 17.5 7.5t7.5 18.5q0 12 -10 19l-8 8q-79 79 -79 194q0 111 79 194l8 8q14 7 14 23q0 12 -7.5 19.5t-17.5 7.5zM718 636q-10 0 -17.5 -7.5t-7.5 -17.5q0 -14 13 -21q64 -64 80 -136q16 -71 -3.5 -139t-70.5 -119l-8 -8q-11 -8 -11 -22q0 -10 7.5 -17.5t17.5 -7.5
q6 0 13 4q6 3 8 8l2 2q53 52 78 121t17 143q-11 118 -103 210q0 2 -2 2l-2 2q-3 3 -11 3zM209 724q-10 0 -19 -10l-8 -10q-64 -64 -98 -147.5t-34 -168.5t34 -168.5t98 -148.5l6 -5q6 -12 19 -12q10 0 16.5 6.5t6.5 16.5q0 11 -9 18l-8 7q-56 57 -85.5 132t-29.5 151.5
t29.5 152t85.5 131.5l8 8q9 7 9 20q3 11 -3.5 19t-17.5 8zM836 720q-10 0 -16.5 -6.5t-6.5 -16.5q0 -11 10 -18l6 -6q75 -75 102 -179t0 -208t-102 -180l-8 -7q-8 -8 -8 -18t6.5 -16.5t16.5 -6.5q14 0 20 11l6 6q64 65 97.5 148.5t33.5 168.5t-33.5 168.5t-97.5 147.5
l-10 10q-2 0 -7.5 1t-8.5 1z" />
    <glyph glyph-name="bofang1-copy-copy-copy-copy-copy-copy" unicode="&#xe976;" 
d="M367 528q3 4 8.5 10.5t22.5 22.5t34.5 28t42 21t47 7.5t47.5 -18t46.5 -50.5t33 -65t12.5 -53t-2 -41t-10.5 -31.5t-14.5 -21t-13 -12.5l-5 -4q-38 -76 -40 -81l-126 -43l-83 21l-21 62l-41 83l21 62l20 83zM458 166q-20 0 -41 6q-35 9 -64 41q-26 30 -42 67
q-30 83 -2 174q26 93 97 145q33 23 71 33q40 10 76 -2q34 -9 65 -40q26 -29 41 -66q30 -84 2 -174q-25 -93 -97 -145q-33 -24 -71 -33q-18 -6 -35 -6zM510 586q-41 0 -77 -27q-56 -43 -78 -120q-23 -78 2 -143q11 -29 30 -49.5t42 -26.5q56 -14 104 25q56 42 78 120
q23 78 -2 143q-11 29 -30 49.5t-42 26.5q-8 2 -27 2zM518 -14q-76 0 -139 20q-80 25 -145 83q-63 58 -99 145q-33 82 -27 160q3 72 39 155q35 75 94 130q67 65 136 90q66 26 141 26q73 -3 135 -26q65 -28 114 -77t78 -118q51 -120 -2 -245q-51 -121 -174 -171
q-20 -10 -40 -7.5t-34 15.5q-14 11 -20 29t-1 37v2l112 336q3 9 12.5 14t18.5 0q10 -3 14.5 -12.5t0.5 -18.5l-112 -333q-2 -5 4 -17q9 -6 25 0q101 41 147 145q41 101 2 207q-23 58 -66.5 101.5t-101.5 66.5q-117 50 -236 2q-67 -26 -120.5 -78t-84.5 -119
q-32 -67 -35 -136q-3 -72 22 -139q32 -76 87 -129q49 -45 127 -72q150 -43 308 21q50 20 114 70q59 52 79 89q5 9 14.5 12t18.5 -1.5t12 -14t-1 -19.5q-27 -51 -89.5 -104.5t-126.5 -79.5q-102 -39 -201 -39v0z" />
    <glyph glyph-name="bofang1-copy-copy-copy-copy-copy-copy-copy" unicode="&#xe977;" 
d="M526 71l-15 -16q-3 -2 -7 -2q-1 0 -3.5 1t-3.5 1l-287 277q-4 3 -10.5 9.5t-24 27.5t-30.5 42.5t-23.5 52.5t-10.5 60q0 93 52.5 145t148.5 52q80 0 179 -93l13 -14l13 14q36 36 83.5 64.5t95.5 28.5q96 0 148.5 -51.5t52.5 -145.5q0 -76 -68 -159q19 -14 26 -24
q78 97 78 183q0 109 -64 171.5t-175 62.5q-94 0 -192 -93q-98 93 -192 93q-110 0 -174.5 -62.5t-64.5 -171.5q0 -34 11.5 -69t27.5 -61t32.5 -46.5t27.5 -31.5l11 -11l288 -276q13 -13 33 -13t33 13l15 13q-11 11 -24 29v0zM533 197q0 -69 48.5 -117.5t117 -48.5t117 48.5
t48.5 117.5t-48.5 117.5t-117 48.5t-117 -48.5t-48.5 -117.5zM698 345q62 0 105 -43.5t43 -104.5t-43 -104.5t-104.5 -43.5t-105 43.5t-43.5 104.5v0q-1 61 43 104.5t105 43.5zM698 380q-76 0 -129.5 -53.5t-53.5 -129.5t53.5 -129.5t130 -53.5t130 53.5t53.5 129.5
t-54.5 129.5t-129.5 53.5zM698 204l5 -5l-2 -2l-3 -2q0 1 -1 2q-2 2 -3 2zM712 307h-25q-5 0 -5.5 -0.5t-0.5 -5.5v-80q0 -4 -5 -4h-86l-2 -2v-31l2 -3h84q3 0 3.5 -0.5t0.5 -3.5v-84q0 -4 5 -4h26q3 0 3 4v82q0 6 6 6h84q2 0 2 3v28q0 3 -2 3h-86q-4 0 -4 4v86l1 1z
M427 292l-67 66l-35 38l-7 9q-13 13 -20 22q-4 4 -8 13l-5 7l-6 13l-5 4q-2 2 -2 7q-4 9 -9 26l-2 5q-4 11 -18 11q-8 0 -14 -6t-6 -14v-4q0 -2 1.5 -3t1.5 -2q2 -4 5 -14t6 -15l6 -13q2 -2 5.5 -8.5t5.5 -9.5q9 -17 16 -24q13 -17 31 -31q10 -10 29.5 -31t29.5 -31
q6 -5 14.5 -14.5t16 -16.5t14.5 -13q8 -4 13 -4q8 0 14 5.5t6 14.5q-3 4 -11 13z" />
    <glyph glyph-name="shibai-copy" unicode="&#xe978;" horiz-adv-x="1025" 
d="M512 806q-115 0 -212 -56.5t-153.5 -153.5t-56.5 -212t56.5 -212t153.5 -153.5t212 -56.5t212 56.5t153.5 153.5t56.5 212t-56.5 212t-153.5 153.5t-212 56.5zM491 615h48q21 0 20 -21l-11 -286q0 -6 -4.5 -10t-10.5 -4h-36q-6 0 -10 4t-4 10l-11 286q-2 21 19 21z
M515.5 146q-20.5 0 -35 14.5t-14.5 35t14.5 34.5t35 14t34.5 -14t14 -34.5t-14 -35t-34.5 -14.5z" />
    <glyph glyph-name="xuanzedui-copy" unicode="&#xe979;" 
d="M511.5 799q-112.5 0 -208 -55.5t-151 -151t-55.5 -208t55.5 -208t151 -151t208 -55.5t208 55.5t151 151t55.5 208t-55.5 208t-151 151t-208 55.5zM741 499l-275 -277v-1h-1q-1 -1 -7 -5l-1.5 -1t-2.5 -1q-6 -3 -12.5 -3t-12.5 3q-1 0 -2.5 1l-1.5 1q-6 3 -8 5v1v0
l-135 139q-10 10 -10 24t10.5 24t24.5 10t24 -11l111 -113l250 253q10 10 24 10t24 -10t10.5 -24.5t-9.5 -24.5z" />
    <glyph glyph-name="xuanzedui-copy-copy-copy" unicode="&#xe97b;" 
d="M60 384q0 -92 35.5 -176t96 -144.5t144.5 -96t176 -35.5t176 35.5t144.5 96t96 144.5t35.5 176v0q0 92 -35.5 176t-96 144.5t-144.5 96t-176 35.5t-176 -35.5t-144.5 -96t-96 -144.5t-35.5 -176zM690 595h-359q-19 0 -32 -12.5t-13 -30.5v-284q0 -17 13 -29.5t32 -12.5
h123q3 -3 8 -10l5 -5q2 -5 5 -5q12 -18 21 -25.5t22 -7.5q24 0 42 33l15 22h121q19 0 32 13t13 30v281q-2 19 -15.5 31t-32.5 12zM716 271q0 -10 -7 -16.5t-16 -6.5h-123q-5 0 -8 -2q-10 -5 -15 -15l-10 -18q-15 -23 -22 -23q-10 0 -23 23q-1 1 -2 3q-2 2 -3 2q-1 1 -2 3
q-2 2 -3 2q-8 10 -13.5 14t-14.5 4h-123q-9 0 -16 6.5t-7 15.5v287q0 9 7 16t16 7h362q9 0 16 -7t7 -16v-279zM369 402q0 -10 7 -18t18 -8t18 7t7 19q0 9 -7 17t-18 8t-18 -7t-7 -18zM487 402q0 -10 7 -18t18 -8q10 0 17.5 7.5t7.5 18.5q0 9 -7 17t-18 8t-18 -7t-7 -18z
M602 402q0 -10 7.5 -18t18.5 -8q10 0 17.5 7.5t7.5 18.5q0 9 -7 17t-18 8q-12 0 -19 -7t-7 -18z" />
    <glyph glyph-name="xihuande-copy" unicode="&#xe97c;" 
d="M114 384q0 -108 53.5 -199.5t145 -145t199.5 -53.5t199.5 53.5t145 145t53.5 199.5v0q0 108 -53.5 199.5t-145 145t-199.5 53.5t-199.5 -53.5t-145 -145t-53.5 -199.5zM512 163q-4 0 -7 2l-156 157q-51 51 -58 111t38 101q40 40 95 33q45 -7 88 -46q43 40 88 46
q52 10 95 -33q41 -41 38 -101q-7 -60 -58 -111q-154 -155 -154 -157q-5 -2 -9 -2zM406 547q-35 0 -64 -28q-38 -38 -31 -86q3 -46 51 -98l148 -148q7 8 43 44.5t65.5 66t39.5 37.5q47 48 51 98q3 51 -31 86q-34 33 -78 26q-42 -7 -84 -48q-2 -3 -4 -3q-4 0 -7 3
q-42 42 -84 48q-4 2 -15 2z" />
    <glyph glyph-name="xiangguande-copy" unicode="&#xe97d;" 
d="M88 384q0 -115 56.5 -213t154.5 -154.5t213 -56.5t213 56.5t154.5 154.5t56.5 213v0q0 115 -56.5 213t-154.5 154.5t-213 56.5t-213 -56.5t-154.5 -154.5t-56.5 -213zM701 269q-30 -40 -74 -64q-48 -26 -120 -26q-87 0 -139 52q-54 54 -54 144q0 84 56.5 141t141.5 57
q76 0 127 -48q47 -47 47 -115q0 -57 -35 -99q-34 -38 -59 -38q-19 0 -19 14q0 12 5 31l45 167v5h-26l-7 -31q-18 43 -61 43q-55 0 -95 -47q-42 -50 -42 -120q0 -37 21 -62q20 -23 57 -23q43 0 80 40q3 -38 40 -38q39 0 80 45q40 51 40 115q0 80 -54 134.5t-144 54.5
q-98 0 -160 -66q-66 -66 -66 -158q0 -100 63 -160q59 -59 158 -59q71 0 132 30q57 31 87 78l3 5h-28v-2zM472 273q-25 0 -38 17q-14 17 -14 42q0 61 35 104q31 38 76 38q24 0 35 -19q12 -16 12 -33q0 -2 -0.5 -5.5t-2 -9.5t-2.5 -11l-14 -54q-6 -24 -31 -48q-31 -21 -56 -21
z" />
  </font>
</defs>
</svg>
